<svg width="1451" height="592" viewBox="0 0 1451 592" fill="none" xmlns="http://www.w3.org/2000/svg">
<path d="M30 587C21.8333 583 5.5 574.5 5.5 572.5C5.5 570 15.5 541 25 527C34.5 513 92 465.5 94.5 454.5C97 443.5 110.5 380 116 372.5C121.5 365 140.5 342 145 342C149.5 342 163 360.5 167.5 362C172 363.5 219.5 385.5 223.5 392C227.5 398.5 257 414.5 264.5 415C272 415.5 291.5 417.5 297.5 415C303.5 412.5 339.5 397 346 395.5C352.5 394 419 363 429 360.5C439 358 486.5 348.5 493.5 348.5C500.5 348.5 506 348 510.5 347C515 346 572 339 578.5 337C585 335 711 287 719.5 283.5C728 280 899.5 215 913.5 212C927.5 209 946 202 953.5 199.5C961 197 1127 131 1140 126.5C1153 122 1289.5 70 1297 67C1303 64.6 1400.5 25.3333 1448.5 6" stroke="#FF7A00" stroke-width="11"/>
</svg>
